<?xml version="1.0" encoding="iso-8859-1"?>
<!-- Generator: Adobe Illustrator 19.0.0, SVG Export Plug-In . SVG Version: 6.00 Build 0)  -->
<svg version="1.1" id="Layer_1" xmlns="http://www.w3.org/2000/svg" xmlns:xlink="http://www.w3.org/1999/xlink" x="0px" y="0px"
	 viewBox="0 0 512 512" style="enable-background:new 0 0 512 512;" xml:space="preserve">
<circle style="fill:#ECE5DD;" cx="256" cy="256" r="247.916"/>
<path style="fill:#D9CBBD;" d="M256,8.084c-10.96,0-21.752,0.72-32.337,2.099C345.304,26.029,439.242,130.04,439.242,256
	s-93.939,229.971-215.579,245.817c10.585,1.379,21.377,2.099,32.337,2.099c136.921,0,247.916-110.996,247.916-247.916
	S392.921,8.084,256,8.084z"/>
<path style="fill:#85BC04;" d="M147.672,404.53v-50.828c0-0.554,0.158-1.097,0.456-1.565l71.703-112.676
	c1.235-1.94-0.16-4.48-2.459-4.48h-66.785c-1.609,0-2.915-1.305-2.915-2.915v-70.701c0-1.609,1.305-2.915,2.915-2.915h114.332
	c0.98,0,1.894-0.493,2.434-1.311l33.806-51.274c0.539-0.818,1.454-1.311,2.434-1.311h57.822c1.609,0,2.915,1.305,2.915,2.915v50.828
	c0,0.554-0.158,1.097-0.456,1.565L292.17,272.538c-1.235,1.94,0.16,4.48,2.459,4.48h66.785c1.609,0,2.915,1.305,2.915,2.915v70.701
	c0,1.609-1.305,2.915-2.915,2.915H247.176c-1.024,0-1.973,0.537-2.5,1.415l-30.639,51.064c-0.527,0.877-1.476,1.415-2.5,1.415
	h-60.953C148.977,407.444,147.672,406.139,147.672,404.53z"/>
<path d="M437.019,74.982C388.667,26.628,324.379,0,256,0S123.333,26.628,74.982,74.982C26.628,123.333,0,187.62,0,256
	s26.628,132.667,74.982,181.019C123.333,485.372,187.62,512,256,512s132.667-26.628,181.019-74.982
	C485.372,388.667,512,324.379,512,256S485.372,123.333,437.019,74.982z M256,495.832C123.756,495.832,16.168,388.244,16.168,256
	S123.756,16.168,256,16.168S495.832,123.756,495.832,256S388.244,495.832,256,495.832z"/>
<path d="M363.789,269.474h-60.726l27.566-43.318c3.424-5.382-0.441-12.424-6.82-12.424l0,0c-2.764,0-5.337,1.412-6.82,3.744
	l-35.347,55.546c-1.265,1.988-1.738,4.429-1.097,6.697c1.011,3.58,4.231,5.923,7.793,5.923h67.367v59.284H245.221
	c-2.84,0-5.471,1.49-6.933,3.926l-29.981,49.97h-52.013v-43.456l74.063-116.386c1.265-1.988,1.738-4.429,1.097-6.697
	c-1.011-3.58-4.231-5.923-7.793-5.923h-67.367v-59.284h110.484c2.717,0,5.254-1.366,6.75-3.635l33.137-50.261h49.04v43.456
	l-13.657,21.461c-3.424,5.382,0.441,12.424,6.82,12.424l0,0c2.764,0,5.337-1.412,6.82-3.744l14.921-23.447
	c0.827-1.297,1.264-2.803,1.264-4.34v-53.895c0-4.465-3.62-8.084-8.084-8.084h-61.477c-2.717,0-5.254,1.366-6.75,3.635
	l-33.137,50.26H148.211c-4.465,0-8.084,3.62-8.084,8.084v75.453c0,4.465,3.62,8.084,8.084,8.084h60.726l-67.546,106.145
	c-0.827,1.297-1.264,2.803-1.264,4.34v53.895c0,4.465,3.62,8.084,8.084,8.084h64.674c2.84,0,5.471-1.49,6.933-3.926l29.981-49.969
	h113.992c4.465,0,8.084-3.62,8.084-8.084v-75.453C371.874,273.093,368.254,269.474,363.789,269.474z"/>
<g>
</g>
<g>
</g>
<g>
</g>
<g>
</g>
<g>
</g>
<g>
</g>
<g>
</g>
<g>
</g>
<g>
</g>
<g>
</g>
<g>
</g>
<g>
</g>
<g>
</g>
<g>
</g>
<g>
</g>
</svg>
