<?xml version="1.0" encoding="iso-8859-1"?>
<!-- Generator: Adobe Illustrator 21.0.0, SVG Export Plug-In . SVG Version: 6.00 Build 0)  -->
<svg version="1.1" id="Capa_1" xmlns="http://www.w3.org/2000/svg" xmlns:xlink="http://www.w3.org/1999/xlink" x="0px" y="0px"
	 viewBox="0 0 512 512" style="enable-background:new 0 0 512 512;" xml:space="preserve">
<g>
	<path style="fill:#71C285;" d="M138.364,141.241h108.809c4.875,0,8.828-3.952,8.828-8.828v-35.31c0-4.875-3.952-8.828-8.828-8.828
		H138.364c-1.91,0-3.769,0.619-5.297,1.766l-23.587,17.655c-2.223,1.667-3.531,4.284-3.531,7.062s1.308,5.395,3.531,7.062
		l23.587,17.655C134.595,140.622,136.454,141.241,138.364,141.241z"/>
	<path style="fill:#4482C3;" d="M345.335,220.69h66.56c11.921,0.034,22.355,8.014,25.512,19.509l64.794,238.345
		c2.168,7.943,0.519,16.442-4.462,22.997c-4.981,6.555-12.728,10.421-20.961,10.46H35.222c-8.233-0.039-15.98-3.904-20.961-10.46
		s-6.63-15.054-4.462-22.997l64.794-238.345c3.157-11.495,13.591-19.474,25.512-19.509H345.335z"/>
	<g>
		<path style="fill:#71C285;" d="M229.517,282.483c0,0-52.215,0-78.327,8.828c-14.257,4.82-11.794,23.923-17.408,35.31
			c-17.399,35.31-18.061,88.276,42.858,79.448C203.891,402.123,186.006,512,186.006,512h43.511c0,0,17.655-44.138,26.483-61.793
			c8.828-17.655,52.966-35.31,61.793-70.621c5.297-21.257,26.827-54.519,35.31-70.621c1.635-3.08,1.304-6.833-0.845-9.579
			c-2.149-2.746-5.713-3.97-9.095-3.124l-25.37,12.703c0,0-8.828,0-35.31-17.655L229.517,282.483z"/>
		<path style="fill:#71C285;" d="M476.778,512H317.793c-1.677-44.138,35.31-61.793,52.966-88.276
			c17.655-26.483,8.828-44.138,26.483-70.621c14.477-21.628,52.524-19.686,65.854-18.273l39.106,143.713
			c2.168,7.943,0.519,16.442-4.462,22.997C492.758,508.096,485.011,511.961,476.778,512z"/>
	</g>
	<path style="fill:#CB8252;" d="M273.655,185.379v141.241c0,9.751-7.904,17.655-17.655,17.655h-17.655
		c-9.751,0-17.655-7.904-17.655-17.655V8.828c0-4.875,3.952-8.828,8.828-8.828h35.31c4.875,0,8.828,3.952,8.828,8.828V185.379z"/>
	<path style="fill:#F0C419;" d="M320.671,97.103H194.207c-4.875,0-8.828-3.952-8.828-8.828v-35.31c0-4.875,3.952-8.828,8.828-8.828
		h126.464c1.91,0,3.769,0.62,5.297,1.766l23.587,17.655c2.223,1.667,3.531,4.284,3.531,7.062s-1.308,5.395-3.531,7.062
		l-23.587,17.655C324.439,96.484,322.581,97.103,320.671,97.103z"/>
	<path style="fill:#E64C3C;" d="M320.671,185.379H194.207c-4.875,0-8.828-3.952-8.828-8.828v-35.31c0-4.875,3.952-8.828,8.828-8.828
		h126.464c1.91,0,3.769,0.62,5.297,1.766l23.587,17.655c2.223,1.667,3.531,4.284,3.531,7.062c0,2.779-1.308,5.395-3.531,7.062
		l-23.587,17.655C324.439,184.76,322.581,185.379,320.671,185.379z"/>
</g>
<g>
</g>
<g>
</g>
<g>
</g>
<g>
</g>
<g>
</g>
<g>
</g>
<g>
</g>
<g>
</g>
<g>
</g>
<g>
</g>
<g>
</g>
<g>
</g>
<g>
</g>
<g>
</g>
<g>
</g>
</svg>
