<?xml version="1.0" encoding="iso-8859-1"?>
<!-- Generator: Adobe Illustrator 19.0.0, SVG Export Plug-In . SVG Version: 6.00 Build 0)  -->
<svg version="1.1" id="Capa_1" xmlns="http://www.w3.org/2000/svg" xmlns:xlink="http://www.w3.org/1999/xlink" x="0px" y="0px"
	 viewBox="0 0 512 512" style="enable-background:new 0 0 512 512;" xml:space="preserve">
<g>
	<g transform="translate(1)">
		<path style="fill:#6A1B9A;" d="M451.267,25.6v344.149H58.733V25.6C58.761,16.186,66.386,8.561,75.8,8.533h358.4
			C443.614,8.561,451.239,16.186,451.267,25.6z"/>
		<path style="fill:#1566C0;" d="M451.267,452.267V486.4c-0.028,9.414-7.653,17.039-17.067,17.067H75.8
			c-9.414-0.028-17.039-7.653-17.067-17.067v-34.133H451.267z"/>
		<polygon style="fill:#283593;" points="493.933,426.667 493.933,469.333 16.067,469.333 16.067,426.667 58.733,369.749 
			92.867,324.267 417.133,324.267 425.667,335.616 451.267,369.749 		"/>
		<path style="fill:#9D27B0;" d="M58.733,294.4V23.45c0.66-8.799,8.259-15.44,17.067-14.916h332.8
			c8.808-0.523,16.406,6.118,17.067,14.916v300.817L58.733,358.4V294.4z"/>
		<path style="fill:#2296F3;" d="M425.667,452.267V486.4c-0.028,9.414-7.653,17.039-17.067,17.067H75.8
			c-9.414-0.028-17.039-7.653-17.067-17.067v-17.067h-25.6v-17.067H425.667z"/>
		<polygon style="fill:#3F51B5;" points="58.733,369.749 16.067,426.667 16.067,469.333 33.133,469.333 58.733,469.333 
			425.667,469.333 451.267,469.333 468.333,469.333 468.333,426.667 425.667,369.749 391.533,324.267 92.867,324.267 		"/>
		<rect x="16.067" y="426.667" style="fill:#1566C0;" width="477.867" height="42.667"/>
		<rect x="16.067" y="426.667" style="fill:#2296F3;" width="452.267" height="42.667"/>
		<path style="fill:#FFEB3A;" d="M297.667,375.467c-0.208,3.383-1.893,6.504-4.608,8.533c-8.605,6.078-19.005,9.083-29.525,8.533
			c-10.521,0.55-20.92-2.456-29.525-8.533c-2.715-2.029-4.4-5.15-4.608-8.533c0-9.387,15.275-17.067,34.133-17.067
			C282.392,358.4,297.667,366.08,297.667,375.467z"/>
		<path style="fill:#F44335;" d="M400.067,375.467c-0.208,3.383-1.893,6.504-4.608,8.533c-8.605,6.078-19.005,9.083-29.525,8.533
			c-10.521,0.55-20.92-2.456-29.525-8.533c-2.715-2.029-4.4-5.15-4.608-8.533c0-9.387,15.275-17.067,34.133-17.067
			C384.792,358.4,400.067,366.08,400.067,375.467z"/>
		<path style="fill:#37474F;" d="M417.133,59.733v264.533H92.867V59.733c0.028-9.414,7.653-17.039,17.067-17.067h290.133
			c7.567,0.053,14.214,5.038,16.384,12.288C416.898,56.508,417.128,58.117,417.133,59.733z"/>
		<path style="fill:#607D8B;" d="M391.533,59.733v264.533H92.867V59.733c0.028-9.414,7.653-17.039,17.067-17.067h264.533
			c7.567,0.053,14.214,5.038,16.384,12.288C391.298,56.508,391.528,58.117,391.533,59.733z"/>
		<circle style="fill:#F44335;" cx="152.6" cy="273.067" r="25.6"/>
	</g>
	<g>
		<path d="M17.067,477.867H51.2v8.533c0,14.138,11.462,25.6,25.6,25.6h358.4c14.138,0,25.6-11.461,25.6-25.6v-8.533h34.133
			c4.713,0,8.533-3.821,8.533-8.533v-42.667c-0.015-1.039-0.224-2.066-0.614-3.029c-0.36-0.699-0.724-1.396-1.092-2.091
			l-40.96-54.613V25.6c0-14.138-11.462-25.6-25.6-25.6H76.8C62.662,0,51.2,11.462,51.2,25.6v341.333l-40.96,54.613
			c-0.232,0.375-0.437,0.766-0.614,1.169c-0.176,0.298-0.336,0.606-0.478,0.922c-0.391,0.963-0.599,1.99-0.614,3.029v42.667
			C8.533,474.046,12.354,477.867,17.067,477.867z M443.733,486.4c0,4.713-3.821,8.533-8.533,8.533H76.8
			c-4.713,0-8.533-3.82-8.533-8.533v-8.533h375.467V486.4z M25.6,460.8v-25.6h460.8v25.6H25.6z M98.133,332.8h46.933v42.667h-8.533
			c-4.713,0-8.533,3.821-8.533,8.533s3.821,8.533,8.533,8.533h34.133c4.713,0,8.533-3.82,8.533-8.533s-3.821-8.533-8.533-8.533
			h-8.533V332.8h251.733l64,85.333H34.133L98.133,332.8z M409.6,315.733H162.133v-9.745c16.643-4.297,27.494-20.299,25.328-37.35
			s-16.673-29.832-33.861-29.832s-31.695,12.781-33.861,29.832c-2.166,17.051,8.685,33.053,25.328,37.35v9.745H102.4v-256
			c0-4.713,3.821-8.533,8.533-8.533h290.133c4.713,0,8.533,3.821,8.533,8.533V315.733z M153.6,290.133
			c-9.426,0-17.067-7.641-17.067-17.067S144.174,256,153.6,256c9.426,0,17.067,7.641,17.067,17.067S163.026,290.133,153.6,290.133z
			 M68.267,25.6c0-4.713,3.821-8.533,8.533-8.533h358.4c4.713,0,8.533,3.821,8.533,8.533v318.575l-17.067-22.75V59.733
			c0-14.138-11.462-25.6-25.6-25.6H110.933c-14.138,0-25.6,11.462-25.6,25.6v261.692l-17.067,22.75V25.6z"/>
		<path d="M230.4,401.067c3.448-0.003,6.556-2.08,7.876-5.265c16.801,7.02,35.713,7.02,52.514,0
			c1.564,3.752,5.557,5.879,9.543,5.085c3.986-0.794,6.859-4.289,6.866-8.354v-17.067c0-14.592-18.338-25.6-42.667-25.6
			s-42.667,11.008-42.667,25.6v17.067C221.867,397.246,225.687,401.067,230.4,401.067z M264.533,366.933
			c16.521,0,25.6,6.409,25.6,8.533c0,2.125-9.079,8.533-25.6,8.533s-25.6-6.409-25.6-8.533
			C238.933,373.342,248.013,366.933,264.533,366.933z"/>
		<path d="M332.8,401.067c3.448-0.003,6.556-2.08,7.876-5.265c16.801,7.02,35.713,7.02,52.514,0
			c1.564,3.752,5.557,5.879,9.543,5.085c3.986-0.794,6.859-4.289,6.867-8.354v-17.067c0-14.592-18.338-25.6-42.667-25.6
			s-42.667,11.008-42.667,25.6v17.067C324.267,397.246,328.087,401.067,332.8,401.067z M366.933,366.933
			c16.521,0,25.6,6.409,25.6,8.533c0,2.125-9.079,8.533-25.6,8.533s-25.6-6.409-25.6-8.533
			C341.333,373.342,350.413,366.933,366.933,366.933z"/>
		<path d="M290.133,264.533h-17.067V256c0-4.713-3.82-8.533-8.533-8.533S256,251.287,256,256v8.533h-17.067
			c-4.713,0-8.533,3.82-8.533,8.533v17.067c0,4.713,3.821,8.533,8.533,8.533c4.713,0,8.533-3.821,8.533-8.533V281.6H281.6v8.533
			c0,4.713,3.821,8.533,8.533,8.533c4.713,0,8.533-3.821,8.533-8.533v-17.067C298.667,268.354,294.846,264.533,290.133,264.533z"/>
		<path d="M264.533,230.4c4.713,0,8.533-3.821,8.533-8.533v-8.533c0-4.713-3.82-8.533-8.533-8.533s-8.533,3.82-8.533,8.533v8.533
			C256,226.579,259.821,230.4,264.533,230.4z"/>
		<path d="M170.667,68.267h-34.133c-4.713,0-8.533,3.821-8.533,8.533c0,4.713,3.821,8.533,8.533,8.533h34.133
			c4.713,0,8.533-3.82,8.533-8.533C179.2,72.087,175.38,68.267,170.667,68.267z"/>
		<path d="M170.667,102.4h-34.133c-4.713,0-8.533,3.821-8.533,8.533c0,4.713,3.821,8.533,8.533,8.533h34.133
			c4.713,0,8.533-3.821,8.533-8.533C179.2,106.221,175.38,102.4,170.667,102.4z"/>
		<path d="M170.667,136.533h-34.133c-4.713,0-8.533,3.821-8.533,8.533c0,4.713,3.821,8.533,8.533,8.533h34.133
			c4.713,0,8.533-3.821,8.533-8.533C179.2,140.354,175.38,136.533,170.667,136.533z"/>
		<path d="M204.8,85.333h34.133c4.713,0,8.533-3.82,8.533-8.533c0-4.713-3.821-8.533-8.533-8.533H204.8
			c-4.713,0-8.533,3.821-8.533,8.533C196.267,81.513,200.087,85.333,204.8,85.333z"/>
		<path d="M204.8,119.467h34.133c4.713,0,8.533-3.821,8.533-8.533c0-4.713-3.821-8.533-8.533-8.533H204.8
			c-4.713,0-8.533,3.821-8.533,8.533C196.267,115.646,200.087,119.467,204.8,119.467z"/>
		<path d="M247.467,145.067c0-4.713-3.821-8.533-8.533-8.533H204.8c-4.713,0-8.533,3.821-8.533,8.533
			c0,4.713,3.821,8.533,8.533,8.533h34.133C243.646,153.6,247.467,149.779,247.467,145.067z"/>
		<path d="M307.2,68.267h-34.133c-4.713,0-8.533,3.821-8.533,8.533c0,4.713,3.82,8.533,8.533,8.533H307.2
			c4.713,0,8.533-3.82,8.533-8.533C315.733,72.087,311.913,68.267,307.2,68.267z"/>
		<path d="M307.2,102.4h-34.133c-4.713,0-8.533,3.821-8.533,8.533c0,4.713,3.82,8.533,8.533,8.533H307.2
			c4.713,0,8.533-3.821,8.533-8.533C315.733,106.221,311.913,102.4,307.2,102.4z"/>
		<path d="M307.2,136.533h-34.133c-4.713,0-8.533,3.821-8.533,8.533c0,4.713,3.82,8.533,8.533,8.533H307.2
			c4.713,0,8.533-3.821,8.533-8.533C315.733,140.354,311.913,136.533,307.2,136.533z"/>
		<path d="M375.467,68.267h-34.133c-4.713,0-8.533,3.821-8.533,8.533c0,4.713,3.82,8.533,8.533,8.533h34.133
			c4.713,0,8.533-3.82,8.533-8.533C384,72.087,380.18,68.267,375.467,68.267z"/>
		<path d="M375.467,102.4h-34.133c-4.713,0-8.533,3.821-8.533,8.533c0,4.713,3.82,8.533,8.533,8.533h34.133
			c4.713,0,8.533-3.821,8.533-8.533C384,106.221,380.18,102.4,375.467,102.4z"/>
		<path d="M375.467,136.533h-34.133c-4.713,0-8.533,3.821-8.533,8.533c0,4.713,3.82,8.533,8.533,8.533h34.133
			c4.713,0,8.533-3.821,8.533-8.533C384,140.354,380.18,136.533,375.467,136.533z"/>
	</g>
</g>
<g>
</g>
<g>
</g>
<g>
</g>
<g>
</g>
<g>
</g>
<g>
</g>
<g>
</g>
<g>
</g>
<g>
</g>
<g>
</g>
<g>
</g>
<g>
</g>
<g>
</g>
<g>
</g>
<g>
</g>
</svg>
